# xmcd
#
# Track frame offsets: 
#        150
#        14010
#        32635
#        44625
#        60590
#        73510
#        83688
#        95283
#        108943
#        123473
#        138218
#
# Disc length: 2099 seconds
#
# Revision: 2
# Processed by: cddbd v1.5.2PL0 Copyright (c) Steve Scherf et al.
# Submitted via: ExactAudioCopy v0.90b4
#
DISCID=8e08310b
DTITLE=Rick Trevino - Looking For The Light - 1995
DYEAR=1900
DGENRE=
TTITLE0=Full Deck Of Cards
TTITLE1=Looking For The Light
TTITLE2=Family Reunion
TTITLE3=You Are To Me
TTITLE4=She Used To Say That To Me
TTITLE5=Poor, Broke, Mixed Up Mess Of A Heart
TTITLE6=I Want A Girl In A Pick-Up Truck
TTITLE7=Save This One For Me
TTITLE8=The Pain
TTITLE9=Bobbie Ann Mason
TTITLE10=San Antonio Rose To You
EXTD=
EXTT0=
EXTT1=
EXTT2=
EXTT3=
EXTT4=
EXTT5=
EXTT6=
EXTT7=
EXTT8=
EXTT9=
EXTT10=
PLAYORDER=
